<svg width="88" height="88" viewBox="0 0 88 88" fill="none" xmlns="http://www.w3.org/2000/svg">
<rect width="88" height="88" rx="44" fill="#1A1A27"/>
<path fill-rule="evenodd" clip-rule="evenodd" d="M54.2234 21.7148H64.0327L32.4502 65.9479H22.8037L54.2234 21.7148ZM42.6997 34.7488L33.4551 21.7148H23.6077L37.8764 41.8583L42.6997 34.7488ZM40.2814 34.774L37.8412 38.3709L27.4504 23.7019H32.4284L40.2814 34.774ZM26.6526 63.9608H31.4274L60.1723 23.7019H55.2493L26.6526 63.9608Z" fill="white"/>
<path fill-rule="evenodd" clip-rule="evenodd" d="M56.3788 64.0702H61.1492L49.956 48.1758L47.4791 51.7143L56.3788 64.0702ZM45.042 51.7307L55.3611 66.0573H64.979L49.9511 44.7177L45.042 51.7307Z" fill="url(#paint0_linear_2352_29166)"/>
<path fill-rule="evenodd" clip-rule="evenodd" d="M44.4232 13.3407C44.4232 13.0468 44.1849 12.8085 43.891 12.8085C43.597 12.8085 43.3587 13.0468 43.3587 13.3407V13.3744C43.3587 13.6684 43.597 13.9067 43.891 13.9067C44.1849 13.9067 44.4232 13.6684 44.4232 13.3744V13.3407ZM44.4232 18.7646C44.4232 18.4706 44.1849 18.2323 43.891 18.2323C43.597 18.2323 43.3587 18.4706 43.3587 18.7646V18.8319C43.3587 19.1259 43.597 19.3642 43.891 19.3642C44.1849 19.3642 44.4232 19.1259 44.4232 18.8319V18.7646ZM44.4232 24.2221C44.4232 23.9281 44.1849 23.6898 43.891 23.6898C43.597 23.6898 43.3587 23.9281 43.3587 24.2221V24.2894C43.3587 24.5834 43.597 24.8217 43.891 24.8217C44.1849 24.8217 44.4232 24.5834 44.4232 24.2894V24.2221ZM44.4232 29.6796C44.4232 29.3856 44.1849 29.1473 43.891 29.1473C43.597 29.1473 43.3587 29.3856 43.3587 29.6796V29.7133C43.3587 30.0072 43.597 30.2455 43.891 30.2455C44.1849 30.2455 44.4232 30.0072 44.4232 29.7133V29.6796ZM44.4232 56.6054C44.4232 56.3115 44.1849 56.0732 43.891 56.0732C43.597 56.0732 43.3587 56.3115 43.3587 56.6054V56.6414C43.3587 56.9353 43.597 57.1736 43.891 57.1736C44.1849 57.1736 44.4232 56.9353 44.4232 56.6414V56.6054ZM44.4232 62.3935C44.4232 62.0995 44.1849 61.8612 43.891 61.8612C43.597 61.8612 43.3587 62.0995 43.3587 62.3935V62.4654C43.3587 62.7593 43.597 62.9976 43.891 62.9976C44.1849 62.9976 44.4232 62.7593 44.4232 62.4654V62.3935ZM44.4232 68.2175C44.4232 67.9235 44.1849 67.6852 43.891 67.6852C43.597 67.6852 43.3587 67.9235 43.3587 68.2175V68.2894C43.3587 68.5833 43.597 68.8216 43.891 68.8216C44.1849 68.8216 44.4232 68.5833 44.4232 68.2894V68.2175ZM44.4232 74.0415C44.4232 73.7475 44.1849 73.5092 43.891 73.5092C43.597 73.5092 43.3587 73.7475 43.3587 74.0415V74.1134C43.3587 74.4074 43.597 74.6457 43.891 74.6457C44.1849 74.6457 44.4232 74.4074 44.4232 74.1134V74.0415ZM44.4232 79.8655C44.4232 79.5715 44.1849 79.3332 43.891 79.3332C43.597 79.3332 43.3587 79.5715 43.3587 79.8655V79.9015C43.3587 80.1954 43.597 80.4337 43.891 80.4337C44.1849 80.4337 44.4232 80.1954 44.4232 79.9015V79.8655ZM80.4096 43.9151C80.4096 44.209 80.1713 44.4473 79.8773 44.4473H79.8451C79.5512 44.4473 79.3129 44.209 79.3129 43.9151C79.3129 43.6211 79.5512 43.3828 79.8451 43.3828H79.8773C80.1713 43.3828 80.4096 43.6211 80.4096 43.9151ZM75.2248 43.9151C75.2248 44.209 74.9865 44.4473 74.6926 44.4473H74.6282C74.3342 44.4473 74.0959 44.209 74.0959 43.9151C74.0959 43.6211 74.3342 43.3828 74.6282 43.3828H74.6926C74.9865 43.3828 75.2248 43.6211 75.2248 43.9151ZM70.0079 43.9151C70.0079 44.209 69.7696 44.4473 69.4756 44.4473H69.4112C69.1172 44.4473 68.8789 44.209 68.8789 43.9151C68.8789 43.6211 69.1172 43.3828 69.4112 43.3828H69.4756C69.7696 43.3828 70.0079 43.6211 70.0079 43.9151ZM64.7909 43.9151C64.7909 44.209 64.5526 44.4473 64.2586 44.4473H64.1942C63.9003 44.4473 63.662 44.209 63.662 43.9151C63.662 43.6211 63.9003 43.3828 64.1942 43.3828H64.2586C64.5526 43.3828 64.7909 43.6211 64.7909 43.9151ZM59.5739 43.9151C59.5739 44.209 59.3356 44.4473 59.0417 44.4473H58.9773C58.6833 44.4473 58.445 44.209 58.445 43.9151C58.445 43.6211 58.6833 43.3828 58.9773 43.3828H59.0417C59.3356 43.3828 59.5739 43.6211 59.5739 43.9151ZM54.357 43.9151C54.357 44.209 54.1187 44.4473 53.8247 44.4473H53.7925C53.4986 44.4473 53.2603 44.209 53.2603 43.9151C53.2603 43.6211 53.4986 43.3828 53.7925 43.3828H53.8247C54.1187 43.3828 54.357 43.6211 54.357 43.9151ZM34.2171 44.4473C34.5111 44.4473 34.7494 44.209 34.7494 43.9151C34.7494 43.6211 34.5111 43.3828 34.2171 43.3828H34.1846C33.8907 43.3828 33.6524 43.6211 33.6524 43.9151C33.6524 44.209 33.8907 44.4473 34.1846 44.4473H34.2171ZM28.987 44.4473C29.281 44.4473 29.5193 44.209 29.5193 43.9151C29.5193 43.6211 29.281 43.3828 28.987 43.3828H28.9221C28.6281 43.3828 28.3898 43.6211 28.3898 43.9151C28.3898 44.209 28.6281 44.4473 28.9221 44.4473H28.987ZM23.7245 44.4473C24.0184 44.4473 24.2567 44.209 24.2567 43.9151C24.2567 43.6211 24.0184 43.3828 23.7245 43.3828H23.6595C23.3656 43.3828 23.1273 43.6211 23.1273 43.9151C23.1273 44.209 23.3656 44.4473 23.6595 44.4473H23.7245ZM18.4619 44.4473C18.7559 44.4473 18.9942 44.209 18.9942 43.9151C18.9942 43.6211 18.7559 43.3828 18.4619 43.3828H18.397C18.103 43.3828 17.8647 43.6211 17.8647 43.9151C17.8647 44.209 18.103 44.4473 18.397 44.4473H18.4619ZM13.1994 44.4473C13.4933 44.4473 13.7316 44.209 13.7316 43.9151C13.7316 43.6211 13.4933 43.3828 13.1994 43.3828H13.1344C12.8404 43.3828 12.6021 43.6211 12.6021 43.9151C12.6021 44.209 12.8404 44.4473 13.1344 44.4473H13.1994ZM7.93681 44.4473C8.23077 44.4473 8.46907 44.209 8.46907 43.9151C8.46907 43.6211 8.23077 43.3828 7.93681 43.3828H7.90433C7.61037 43.3828 7.37207 43.6211 7.37207 43.9151C7.37207 44.209 7.61037 44.4473 7.90433 44.4473H7.93681Z" fill="#55555E"/>
<path fill-rule="evenodd" clip-rule="evenodd" d="M43.855 7.39655H43.9262C44.2201 7.39683 44.4582 7.63535 44.4579 7.92931C44.4577 8.22327 44.2191 8.46134 43.9252 8.46106H43.856C43.5621 8.46134 43.3236 8.22327 43.3233 7.92931C43.323 7.63535 43.5611 7.39683 43.855 7.39655ZM38.8243 8.27894C38.8696 8.56938 38.6709 8.84159 38.3805 8.88695L38.3124 8.89765C38.0221 8.94357 37.7495 8.74542 37.7035 8.45507C37.6576 8.16472 37.8558 7.89212 38.1461 7.8462L38.2163 7.83518C38.5067 7.78982 38.7789 7.9885 38.8243 8.27894ZM48.9569 8.27894C49.0023 7.9885 49.2745 7.78982 49.5649 7.83518L49.6351 7.8462C49.9254 7.89212 50.1236 8.16472 50.0777 8.45507C50.0318 8.74542 49.7592 8.94357 49.4688 8.89765L49.4007 8.88695C49.1103 8.84159 48.9116 8.56938 48.9569 8.27894ZM54.4662 9.50504C54.5567 9.22537 54.8568 9.07202 55.1365 9.16254L55.2039 9.18443C55.4834 9.27549 55.6362 9.57589 55.5451 9.85539C55.454 10.1349 55.1536 10.2876 54.8741 10.1966L54.8087 10.1753C54.529 10.0848 54.3757 9.78472 54.4662 9.50504ZM33.315 9.50505C33.4055 9.78472 33.2522 10.0848 32.9725 10.1753L32.9071 10.1966C32.6276 10.2876 32.3272 10.1349 32.2361 9.85539C32.1451 9.57589 32.2978 9.27549 32.5773 9.18443L32.6447 9.16254C32.9244 9.07202 33.2245 9.22537 33.315 9.50505ZM59.7129 11.5837C59.8464 11.3217 60.1669 11.2176 60.4288 11.351L60.4918 11.3831C60.7535 11.5171 60.8571 11.8378 60.7232 12.0994C60.5892 12.3611 60.2685 12.4647 60.0069 12.3308L59.9457 12.2995C59.6837 12.1661 59.5795 11.8456 59.7129 11.5837ZM28.0683 11.5837C28.2017 11.8456 28.0975 12.1661 27.8355 12.2995L27.7744 12.3308C27.5127 12.4647 27.192 12.3611 27.0581 12.0994C26.9241 11.8378 27.0277 11.5171 27.2894 11.3831L27.3524 11.351C27.6144 11.2176 27.9349 11.3217 28.0683 11.5837ZM23.2133 14.4604C23.386 14.6983 23.3332 15.0311 23.0954 15.2039L23.0399 15.2443C22.8024 15.4175 22.4694 15.3653 22.2962 15.1278C22.123 14.8903 22.1751 14.5574 22.4126 14.3842L22.4698 14.3425C22.7077 14.1698 23.0405 14.2226 23.2133 14.4604ZM64.568 14.4604C64.7407 14.2226 65.0735 14.1698 65.3114 14.3425L65.3686 14.3842C65.6061 14.5574 65.6582 14.8903 65.485 15.1278C65.3118 15.3653 64.9789 15.4175 64.7414 15.2443L64.6858 15.2039C64.448 15.0311 64.3952 14.6983 64.568 14.4604ZM18.8666 18.0597C19.0742 18.2678 19.0739 18.6048 18.8658 18.8124L18.8173 18.861C18.6096 19.0691 18.2726 19.0694 18.0645 18.8617C17.8565 18.6541 17.8561 18.3171 18.0638 18.109L18.1138 18.059C18.3219 17.8513 18.6589 17.8516 18.8666 18.0597ZM68.9146 18.0597C69.1223 17.8516 69.4593 17.8513 69.6674 18.059L69.7174 18.109C69.9251 18.3171 69.9247 18.6541 69.7167 18.8617C69.5086 19.0694 69.1716 19.0691 68.964 18.861L68.9154 18.8124C68.7073 18.6048 68.707 18.2678 68.9146 18.0597ZM15.1327 22.2914C15.3702 22.4646 15.4223 22.7975 15.2491 23.035L15.2087 23.0906C15.0359 23.3284 14.7031 23.3812 14.4652 23.2084C14.2274 23.0357 14.1746 22.7028 14.3474 22.465L14.389 22.4078C14.5622 22.1703 14.8951 22.1182 15.1327 22.2914ZM72.6486 22.2914C72.8861 22.1182 73.219 22.1703 73.3922 22.4078L73.4339 22.465C73.6066 22.7028 73.5538 23.0357 73.316 23.2084C73.0781 23.3812 72.7453 23.3284 72.5725 23.0906L72.5321 23.035C72.3589 22.7975 72.411 22.4646 72.6486 22.2914ZM75.6769 27.0532C75.9386 26.9193 76.2593 27.0229 76.3932 27.2846L76.4254 27.3476C76.5588 27.6095 76.4546 27.93 76.1927 28.0634C75.9308 28.1969 75.6103 28.0927 75.4769 27.8307L75.4456 27.7695C75.3117 27.5078 75.4153 27.1872 75.6769 27.0532ZM12.1043 27.0532C12.3659 27.1872 12.4695 27.5079 12.3356 27.7695L12.3044 27.8307C12.1709 28.0927 11.8504 28.1969 11.5885 28.0634C11.3266 27.93 11.2224 27.6095 11.3558 27.3476L11.388 27.2846C11.5219 27.0229 11.8426 26.9193 12.1043 27.0532ZM9.86021 32.2313C10.1397 32.3224 10.2925 32.6228 10.2014 32.9023L10.1802 32.9677C10.0896 33.2474 9.78954 33.4007 9.50987 33.3102C9.23019 33.2197 9.07685 32.9196 9.16736 32.6399L9.18925 32.5725C9.28031 32.293 9.58071 32.1402 9.86021 32.2313ZM77.921 32.2313C78.2005 32.1402 78.5009 32.293 78.592 32.5725L78.6139 32.6399C78.7044 32.9196 78.551 33.2197 78.2713 33.3102C77.9917 33.4007 77.6916 33.2474 77.6011 32.9677L77.5798 32.9023C77.4888 32.6228 77.6415 32.3224 77.921 32.2313ZM8.45989 37.6987C8.75024 37.7446 8.94839 38.0172 8.90247 38.3076L8.89177 38.3757C8.84641 38.6661 8.5742 38.8648 8.28376 38.8195C7.99332 38.7741 7.79464 38.5019 7.84 38.2115L7.85102 38.1413C7.89694 37.8509 8.16954 37.6528 8.45989 37.6987ZM79.3213 37.6987C79.6117 37.6528 79.8843 37.851 79.9302 38.1413L79.9412 38.2115C79.9866 38.5019 79.7879 38.7741 79.4975 38.8195C79.207 38.8648 78.9348 38.6661 78.8894 38.3757L78.8787 38.3076C78.8328 38.0172 79.031 37.7446 79.3213 37.6987ZM7.93413 43.3185C8.22809 43.3187 8.46616 43.5573 8.46588 43.8512V43.9203C8.46616 44.2143 8.22809 44.4528 7.93413 44.4531C7.64018 44.4534 7.40165 44.2153 7.40137 43.9214V43.8502C7.40165 43.5563 7.64018 43.3182 7.93413 43.3185ZM79.8471 43.3185C80.141 43.3182 80.3796 43.5563 80.3798 43.8502V43.9214C80.3796 44.2153 80.141 44.4534 79.8471 44.4531C79.5531 44.4528 79.315 44.2143 79.3153 43.9203V43.8512C79.315 43.5573 79.5531 43.3187 79.8471 43.3185ZM8.28376 48.9521C8.5742 48.9068 8.84641 49.1054 8.89177 49.3959L8.90247 49.464C8.94839 49.7543 8.75024 50.0269 8.45989 50.0728C8.16954 50.1188 7.89694 49.9206 7.85102 49.6303L7.84 49.5601C7.79464 49.2697 7.99332 48.9975 8.28376 48.9521ZM79.4975 48.9521C79.7879 48.9975 79.9866 49.2697 79.9412 49.5601L79.9302 49.6303C79.8843 49.9206 79.6117 50.1188 79.3213 50.0728C79.031 50.0269 78.8328 49.7543 78.8787 49.464L78.8894 49.3959C78.9348 49.1054 79.207 48.9068 79.4975 48.9521ZM9.50987 54.4614C9.78954 54.3709 10.0896 54.5242 10.1802 54.8039L10.2014 54.8693C10.2925 55.1488 10.1397 55.4492 9.86021 55.5403C9.58071 55.6313 9.28031 55.4786 9.18925 55.1991L9.16736 55.1317C9.07685 54.852 9.23019 54.5519 9.50987 54.4614ZM78.2713 54.4614C78.551 54.5519 78.7044 54.852 78.6139 55.1317L78.592 55.1991C78.5009 55.4786 78.2005 55.6313 77.921 55.5403C77.6415 55.4492 77.4888 55.1488 77.5798 54.8693L77.6011 54.8039C77.6916 54.5242 77.9917 54.3709 78.2713 54.4614ZM11.5885 59.7081C11.8504 59.5747 12.1709 59.6789 12.3044 59.9408L12.3356 60.002C12.4695 60.2637 12.366 60.5844 12.1043 60.7183C11.8426 60.8523 11.5219 60.7487 11.388 60.487L11.3558 60.424C11.2224 60.162 11.3266 59.8415 11.5885 59.7081ZM76.1927 59.7081C76.4547 59.8415 76.5588 60.162 76.4254 60.424L76.3932 60.487C76.2593 60.7487 75.9386 60.8523 75.6769 60.7183C75.4153 60.5844 75.3117 60.2637 75.4456 60.002L75.4769 59.9408C75.6103 59.6789 75.9308 59.5747 76.1927 59.7081ZM14.4652 64.5631C14.7031 64.3904 15.0359 64.4431 15.2087 64.681L15.2491 64.7365C15.4223 64.974 15.3702 65.307 15.1327 65.4802C14.8951 65.6534 14.5622 65.6013 14.389 65.3638L14.3474 65.3066C14.1746 65.0687 14.2274 64.7359 14.4652 64.5631ZM73.316 64.5631C73.5538 64.7359 73.6066 65.0687 73.4339 65.3066L73.3922 65.3638C73.219 65.6013 72.8861 65.6534 72.6486 65.4802C72.411 65.307 72.3589 64.974 72.5321 64.7365L72.5725 64.681C72.7453 64.4431 73.0781 64.3904 73.316 64.5631ZM18.0645 68.9098C18.2726 68.7022 18.6096 68.7025 18.8173 68.9106L18.8658 68.9591C19.0739 69.1668 19.0742 69.5038 18.8666 69.7119C18.6589 69.9199 18.3219 69.9202 18.1138 69.7126L18.0638 69.6626C17.8561 69.4545 17.8565 69.1175 18.0645 68.9098ZM69.7167 68.9098C69.9247 69.1175 69.9251 69.4545 69.7174 69.6626L69.6674 69.7126C69.4593 69.9202 69.1223 69.9199 68.9146 69.7119C68.707 69.5038 68.7073 69.1668 68.9154 68.9591L68.964 68.9106C69.1716 68.7025 69.5086 68.7022 69.7167 68.9098ZM22.2962 72.6437C22.4694 72.4062 22.8024 72.3541 23.0399 72.5273L23.0954 72.5677C23.3332 72.7405 23.386 73.0733 23.2133 73.3112C23.0405 73.549 22.7077 73.6018 22.4698 73.429L22.4126 73.3874C22.1751 73.2142 22.123 72.8812 22.2962 72.6437ZM65.485 72.6437C65.6582 72.8812 65.6061 73.2142 65.3686 73.3874L65.3114 73.429C65.0735 73.6018 64.7407 73.549 64.568 73.3112C64.3952 73.0733 64.448 72.7405 64.6858 72.5677L64.7414 72.5273C64.9789 72.3541 65.3118 72.4062 65.485 72.6437ZM27.0581 75.6721C27.192 75.4104 27.5127 75.3069 27.7744 75.4408L27.8355 75.472C28.0975 75.6055 28.2017 75.9259 28.0683 76.1879C27.9349 76.4498 27.6144 76.554 27.3524 76.4206L27.2894 76.3884C27.0277 76.2545 26.9241 75.9338 27.0581 75.6721ZM60.7232 75.6721C60.8571 75.9338 60.7535 76.2545 60.4918 76.3884L60.4288 76.4206C60.1669 76.554 59.8464 76.4498 59.7129 76.1879C59.5795 75.9259 59.6837 75.6054 59.9457 75.472L60.0069 75.4408C60.2685 75.3069 60.5892 75.4104 60.7232 75.6721ZM32.2361 77.9162C32.3272 77.6367 32.6276 77.4839 32.9071 77.575L32.9725 77.5962C33.2522 77.6868 33.4055 77.9868 33.315 78.2665C33.2245 78.5462 32.9244 78.6995 32.6447 78.609L32.5773 78.5871C32.2978 78.4961 32.1451 78.1957 32.2361 77.9162ZM55.5451 77.9162C55.6362 78.1957 55.4834 78.4961 55.2039 78.5871L55.1365 78.609C54.8568 78.6995 54.5567 78.5462 54.4662 78.2665C54.3757 77.9868 54.529 77.6868 54.8087 77.5962L54.8741 77.575C55.1536 77.4839 55.454 77.6367 55.5451 77.9162ZM37.7035 79.3165C37.7495 79.0262 38.0221 78.828 38.3124 78.8739L38.3805 78.8846C38.6709 78.93 38.8696 79.2022 38.8243 79.4926C38.7789 79.7831 38.5067 79.9818 38.2163 79.9364L38.1461 79.9254C37.8558 79.8794 37.6576 79.6068 37.7035 79.3165ZM50.0777 79.3165C50.1236 79.6068 49.9254 79.8794 49.6351 79.9254L49.5649 79.9364C49.2745 79.9818 49.0023 79.7831 48.9569 79.4926C48.9116 79.2022 49.1103 78.93 49.4007 78.8846L49.4688 78.8739C49.7592 78.828 50.0317 79.0262 50.0777 79.3165ZM43.3233 79.8423C43.3236 79.5483 43.5621 79.3102 43.856 79.3105H43.9252C44.2191 79.3102 44.4576 79.5483 44.4579 79.8423C44.4582 80.1362 44.2201 80.3747 43.9262 80.375H43.855C43.5611 80.3747 43.323 80.1362 43.3233 79.8423Z" fill="white"/>
<path d="M45.0732 79.8428C45.0732 80.496 44.5437 81.0256 43.8904 81.0256C43.2372 81.0256 42.7076 80.496 42.7076 79.8428C42.7076 79.1895 43.2372 78.66 43.8904 78.66C44.5437 78.66 45.0732 79.1895 45.0732 79.8428Z" fill="#6966FF"/>
<path d="M79.8478 45.0687C79.1946 45.0687 78.665 44.5391 78.665 43.8859C78.665 43.2326 79.1946 42.7031 79.8478 42.7031C80.5011 42.7031 81.0306 43.2326 81.0306 43.8859C81.0306 44.5391 80.5011 45.0687 79.8478 45.0687Z" fill="#6966FF"/>
<path d="M45.0732 7.92865C45.0732 8.58189 44.5437 9.11145 43.8904 9.11145C43.2372 9.11145 42.7076 8.58189 42.7076 7.92865C42.7076 7.27541 43.2372 6.74586 43.8904 6.74586C44.5437 6.74586 45.0732 7.27541 45.0732 7.92865Z" fill="#6966FF"/>
<path d="M7.93377 45.0687C7.28053 45.0687 6.75098 44.5391 6.75098 43.8859C6.75098 43.2326 7.28053 42.7031 7.93377 42.7031C8.58701 42.7031 9.11657 43.2326 9.11657 43.8859C9.11657 44.5391 8.58701 45.0687 7.93377 45.0687Z" fill="#6966FF"/>
<defs>
<linearGradient id="paint0_linear_2352_29166" x1="57.5281" y1="62.6985" x2="41.6325" y2="40.858" gradientUnits="userSpaceOnUse">
<stop stop-color="#6966FF"/>
<stop offset="1" stop-color="#6966FF" stop-opacity="0.36"/>
</linearGradient>
</defs>
</svg>
